<svg version="1.2" xmlns="http://www.w3.org/2000/svg" viewBox="0 0 746 176" width="746" height="176">
	<style>
		.s0 { fill: #daa5de } 
	</style>
	<path class="s0" d="m251.58 54.35h-19.27l-10.46 57.73-9.11-56.69h-26.96l-9.48 56.46-9.64-57.5h-20.01l17.4 72.14h25.17l9.71-56.16 9.11 56.16h25.09zm56.61 43.47c0-14.42-9.41-28.61-28-28.61-18.6 0-29.8 13.3-29.8 29.58 0 19.64 12.77 29.2 28.75 29.2 14.34 0 24.8-7.17 28.01-19.79h-18.45c-0.75 4.26-4.03 7.02-9.33 7.02-5.31 0-9.42-2.61-10.39-11.95h38.92c0.22-1.87 0.29-3.73 0.29-5.45zm-28.9-15.83c5 0 8.22 3.21 9.26 9.78h-18.89c1.27-6.87 4.7-9.78 9.63-9.78zm80.36 25.76l6.05 18.75h20.54l-26.06-72.15h-23.01l-25.99 72.15h19.94l6.05-18.75zm-11.2-36.74l6.72 22.1h-13.37zm97.99 13.37c-1.42-9.71-8.22-15.16-19.72-15.16-5.15 0-9.11 1.12-12.54 3.21l-5.08 6.95v-8.74h-18.82v55.87h18.82v-26.37c0-12.62 4.1-18.15 9.86-18.15 5.67 0 8.58 3.14 8.96 8.44 0.22 2.84 0.22 5.83 0.22 7.62v28.46h18.82v-31.6c0-4.48-0.07-7.69-0.52-10.53zm20.61-36.37c-5.82 0-9.71 3.51-9.71 9.19 0 5.6 3.89 9.18 9.71 9.18 5.83 0 9.71-3.58 9.71-9.18 0-5.68-3.88-9.19-9.71-9.19zm9.41 78.5v-55.87h-18.82v55.87zm101.13-43.17c-1.27-7.62-7.55-14.12-18.75-14.12-5.08 0-8.59 1.12-12.02 3.21l-5.83 7.62c-2.39-6.12-8.36-10.83-17.92-10.83-5.08 0-8.52 1.12-12.03 3.21l-4.48 7.25v-9.04h-18.82v55.87h18.82v-29.51c0-9.48 2.39-15.01 8.52-15.01 4.85 0 7.39 3.14 7.99 8.44 0.37 2.84 0.44 5.83 0.44 7.62v28.46h18.83v-29.51c0-9.48 2.39-15.01 8.44-15.01 4.92 0 7.46 3.14 8.06 8.44 0.3 2.84 0.45 5.83 0.45 7.62v28.46h18.82v-32.64c0-4.48-0.15-7.69-0.52-10.53zm43.91 43.17h18.38c-0.83-6.2-1.05-9.94-1.05-14.12v-15.68c0-3.44-0.07-6.73-0.3-9.49-0.82-10.16-6.87-18-24.57-18-14.12 0-25.69 7.4-25.84 20.47l17.77-0.08c0.3-4.85 2.84-7.62 7.25-7.62 4.03 0 6.35 2.47 6.65 5.31 0.22 1.79 0.22 2.91 0.22 4.1v0.82h-3.51c-18.97 0-30.25 7.32-30.25 19.2 0 10.83 8.66 16.58 17.85 16.58 5.15 0 9.86-1.27 13.82-3.81l2.31-5.83zm-9.63-11.27c-3.74 0-6.35-1.87-6.35-5.23 0-5.53 6.05-7.77 14.49-7.1v3.66c0 5.83-4.41 8.67-8.14 8.67zm60.87-32.42h12.32v-11.72h-12.32v-14.42h-18.82v14.42h-8.89v11.72h8.89v23.31c0 3.13 0 5.75 0.22 8.96 0.6 8.59 4.78 12.92 18.67 12.92 3.96 0 7.47-0.37 11.13-0.97v-11.73c-8.89 0.45-10.68-0.82-11.13-6.5-0.07-1.41-0.07-3.51-0.07-5.37zm73.26 15.01c0-14.42-9.41-28.61-28-28.61-18.6 0-29.8 13.3-29.8 29.58 0 19.64 12.77 29.2 28.75 29.2 14.34 0 24.8-7.17 28.01-19.79h-18.52c-0.68 4.26-3.96 7.02-9.26 7.02-5.38 0-9.41-2.61-10.39-11.95h38.92c0.22-1.87 0.29-3.73 0.29-5.45zm-28.97-15.83c5.08 0 8.29 3.21 9.33 9.78h-18.89c1.19-6.87 4.7-9.78 9.56-9.78z"/>
	<path class="s0" d="m119.98 77.99h-19.99v-49.99l-40 69.99h20v49.99zm-119.98 10h49.99v10h-49.99zm9.99-19.99h50v9.99h-50zm20-19.99h40v9.99h-40z"/>
	<g id="Layer 1">
	</g>
</svg>