<svg version="1.2" xmlns="http://www.w3.org/2000/svg" viewBox="0 0 746 176" width="746" height="176">
	<style>
		.s0 { fill: #daa5de } 
	</style>
	<g id="Layer 1">
		<path class="s0" d="m279.92 56.06h-18.17l-9.85 54.42-8.59-53.44h-25.42l-8.94 53.23-9.08-54.21h-18.87l16.4 68.01h23.73l9.15-52.94 8.59 52.94h23.66zm53.37 40.98c0-13.59-8.88-26.97-26.41-26.97-17.53 0-28.09 12.53-28.09 27.88 0 18.52 12.04 27.53 27.11 27.53 13.52 0 23.37-6.76 26.4-18.66h-17.39c-0.7 4.01-3.8 6.62-8.8 6.62-5 0-8.87-2.46-9.79-11.26h36.68c0.22-1.77 0.29-3.53 0.29-5.14zm-27.25-14.93c4.72 0 7.74 3.03 8.73 9.22h-17.81c1.19-6.47 4.43-9.22 9.08-9.22zm75.75 24.29l5.71 17.67h19.36l-24.57-68.01h-21.69l-24.5 68.01h18.8l5.7-17.67zm-10.56-34.64l6.34 20.84h-12.6zm92.37 12.6c-1.34-9.15-7.75-14.29-18.59-14.29-4.86 0-8.59 1.06-11.83 3.03l-4.78 6.55v-8.24h-17.75v52.66h17.75v-24.85c0-11.9 3.87-17.11 9.29-17.11 5.35 0 8.1 2.96 8.45 7.96 0.21 2.67 0.21 5.49 0.21 7.18v26.82h17.74v-29.78c0-4.22-0.07-7.25-0.49-9.93zm19.43-34.28c-5.49 0-9.15 3.3-9.15 8.66 0 5.28 3.66 8.65 9.15 8.65 5.49 0 9.15-3.37 9.15-8.65 0-5.36-3.66-8.66-9.15-8.66zm8.87 73.99v-52.66h-17.74v52.66zm95.33-40.69c-1.2-7.18-7.11-13.31-17.67-13.31-4.79 0-8.1 1.06-11.34 3.03l-5.49 7.18c-2.25-5.77-7.89-10.21-16.9-10.21-4.79 0-8.03 1.06-11.33 3.03l-4.23 6.83v-8.52h-17.74v52.66h17.74v-27.81c0-8.94 2.25-14.15 8.03-14.15 4.57 0 6.97 2.96 7.53 7.96 0.35 2.67 0.42 5.49 0.42 7.18v26.82h17.75v-27.81c0-8.94 2.25-14.15 7.95-14.15 4.65 0 7.04 2.96 7.61 7.96 0.28 2.67 0.42 5.49 0.42 7.18v26.82h17.74v-30.77c0-4.22-0.14-7.25-0.49-9.92zm41.39 40.69h17.32c-0.77-5.84-0.98-9.36-0.98-13.31v-14.78c0-3.24-0.07-6.34-0.28-8.94-0.78-9.58-6.48-16.97-23.17-16.97-13.3 0-24.22 6.97-24.36 19.29l16.76-0.07c0.28-4.58 2.68-7.18 6.83-7.18 3.8 0 5.98 2.32 6.27 5 0.21 1.69 0.21 2.74 0.21 3.87v0.78h-3.31c-17.89 0-28.52 6.89-28.52 18.09 0 10.21 8.17 15.63 16.83 15.63 4.86 0 9.29-1.2 13.03-3.59l2.18-5.49zm-9.08-10.63c-3.52 0-5.99-1.76-5.99-4.93 0-5.21 5.7-7.32 13.66-6.69v3.45c0 5.49-4.15 8.17-7.67 8.17zm57.38-30.56h11.61v-11.05h-11.61v-13.59h-17.75v13.59h-8.37v11.05h8.37v21.97c0 2.95 0 5.42 0.21 8.44 0.57 8.1 4.51 12.18 17.61 12.18 3.73 0 7.04-0.35 10.49-0.91v-11.05c-8.38 0.42-10.07-0.78-10.49-6.13-0.07-1.34-0.07-3.31-0.07-5.07zm69.06 14.15c0-13.59-8.87-26.96-26.4-26.96-17.53 0-28.09 12.53-28.09 27.88 0 18.51 12.04 27.53 27.11 27.53 13.51 0 23.37-6.76 26.4-18.66h-17.46c-0.64 4.01-3.73 6.62-8.73 6.62-5.07 0-8.87-2.47-9.79-11.27h36.68c0.21-1.76 0.28-3.52 0.28-5.14zm-27.31-14.92c4.78 0 7.81 3.02 8.8 9.22h-17.82c1.13-6.48 4.44-9.22 9.02-9.22z"/>
	</g>
</svg>